<?xml version="1.0" encoding="UTF-8" standalone="no"?>
<svg
   xmlns:dc="http://purl.org/dc/elements/1.1/"
   xmlns:cc="http://creativecommons.org/ns#"
   xmlns:rdf="http://www.w3.org/1999/02/22-rdf-syntax-ns#"
   xmlns:svg="http://www.w3.org/2000/svg"
   xmlns="http://www.w3.org/2000/svg"
   xmlns:sodipodi="http://sodipodi.sourceforge.net/DTD/sodipodi-0.dtd"
   xmlns:inkscape="http://www.inkscape.org/namespaces/inkscape"
   version="1.1"
   id="Layer_1"
   x="0px"
   y="0px"
   width="180"
   height="180"
   viewBox="0 306 180 180"
   enable-background="new 0 306 612 180"
   xml:space="preserve"
   inkscape:version="0.91 r13725"
   sodipodi:docname="mongochem.svg"><metadata
     id="metadata51"><rdf:RDF><cc:Work
         rdf:about=""><dc:format>image/svg+xml</dc:format><dc:type
           rdf:resource="http://purl.org/dc/dcmitype/StillImage" /><dc:title></dc:title></cc:Work></rdf:RDF></metadata><defs
     id="defs49" /><sodipodi:namedview
     pagecolor="#ffffff"
     bordercolor="#666666"
     borderopacity="1"
     objecttolerance="10"
     gridtolerance="10"
     guidetolerance="10"
     inkscape:pageopacity="0"
     inkscape:pageshadow="2"
     inkscape:window-width="736"
     inkscape:window-height="480"
     id="namedview47"
     showgrid="false"
     inkscape:zoom="1.4166667"
     inkscape:cx="90"
     inkscape:cy="90"
     inkscape:window-x="1920"
     inkscape:window-y="0"
     inkscape:window-maximized="0"
     inkscape:current-layer="Layer_1" /><g
     id="g23"
     transform="matrix(1.2735895,0,0,1.2735895,-31.603872,-110.88372)"><g
       id="g25"><polygon
         points="39.52,344.659 38.788,450.842 70.603,468 161.559,416.186 161.803,381.354 69.818,327.46 "
         id="polygon27"
         style="fill:#064f8c" /></g><g
       id="g29"><polygon
         points="131.243,372.457 115.738,345.172 80.917,344.792 69.663,364.862 46.658,364.258 30.352,394.083 46.334,422.11 71.056,423.179 85.951,449.392 118.037,449.915 134.007,422.085 119.087,395.826 "
         id="polygon31"
         style="fill:#249847" /><path
         d="m 119.318,452.17 -34.68,-0.565 -14.915,-26.247 -24.719,-1.068 -17.211,-30.183 17.56,-32.118 23.021,0.604 11.244,-20.048 37.429,0.408 16.739,29.458 -12.156,23.368 14.95,26.312 -17.262,30.079 z m -32.056,-4.991 29.493,0.48 14.68,-25.58 -14.891,-26.207 12.156,-23.369 -14.269,-25.112 -32.213,-0.352 -11.265,20.091 -22.988,-0.604 -15.055,27.535 14.753,25.872 24.725,1.068 14.874,26.178 z"
         id="path33"
         inkscape:connector-curvature="0"
         style="fill:#ffffff" /></g><g
       id="g35"><polygon
         points="121.827,421.473 126.7,421.628 113.887,399.078 89.029,398.283 76.982,420.047 89.796,442.597 92.159,438.329 81.857,420.2 91.54,402.706 111.526,403.343 "
         id="polygon37"
         style="fill:#ffffff" /></g><g
       id="g39"><polygon
         points="118.434,372.37 123.516,372.406 111.971,351.855 86.036,351.675 72.912,374.047 85.726,396.599 88.299,392.213 77.996,374.083 88.547,356.095 109.399,356.24 "
         id="polygon41"
         style="fill:#ffffff" /></g><g
       id="g43"><polygon
         points="84.549,394.345 89.632,394.38 76.818,371.828 50.883,371.65 37.762,394.02 49.576,414.571 52.148,410.186 42.847,394.057 53.397,376.068 74.247,376.215 "
         id="polygon45"
         style="fill:#ffffff" /></g></g></svg>
