<?xml version="1.0" encoding="utf-8"?>
<!-- Generator: Adobe Illustrator 15.0.2, SVG Export Plug-In . SVG Version: 6.00 Build 0)  -->
<!DOCTYPE svg PUBLIC "-//W3C//DTD SVG 1.1//EN" "http://www.w3.org/Graphics/SVG/1.1/DTD/svg11.dtd">
<svg version="1.1" id="Layer_1" xmlns="http://www.w3.org/2000/svg" xmlns:xlink="http://www.w3.org/1999/xlink" x="0px" y="0px"
	 width="864px" height="864px" viewBox="0 0 864 864" enable-background="new 0 0 864 864" xml:space="preserve">
<path fill="#414042" d="M183.672,532.026l-147.8-84.999l-0.277-170.481l147.51-85.493l147.79,85.006l0.277,170.492L183.672,532.026z
	 M58.47,433.934l125.158,71.975l124.904-72.381l-0.236-144.374l-125.147-71.982L58.234,289.57L58.47,433.934z"/>
<path fill="#414042" d="M71.21,426.173c-7.772-13.403-24.952-17.979-38.358-10.216c-13.419,7.772-17.989,24.956-10.217,38.371
	c7.771,13.413,24.951,17.986,38.359,10.215C74.412,456.758,78.981,439.588,71.21,426.173z"/>
<path fill="#414042" d="M207.42,498.921c-7.782-13.414-24.953-17.987-38.369-10.215c-13.409,7.784-17.989,24.953-10.206,38.356
	c7.772,13.418,24.941,17.989,38.357,10.22C210.621,529.508,215.193,512.336,207.42,498.921z"/>
<path fill="#414042" d="M343.628,426.173c-7.773-13.403-24.951-17.979-38.358-10.216c-13.418,7.772-17.988,24.956-10.217,38.371
	c7.773,13.413,24.953,17.986,38.358,10.215C346.83,456.758,351.4,439.588,343.628,426.173z"/>
<path fill="#414042" d="M343.628,268.76c-7.773-13.415-24.941-17.988-38.358-10.213c-13.418,7.78-17.988,24.952-10.217,38.366
	c7.773,13.409,24.953,17.99,38.369,10.219C346.83,299.348,351.4,282.177,343.628,268.76z"/>
<path fill="#414042" d="M207.413,193.024c-7.772-13.403-24.943-17.987-38.359-10.204c-13.409,7.76-17.989,24.942-10.206,38.357
	c7.771,13.418,24.941,17.988,38.357,10.219C210.624,223.613,215.197,206.442,207.413,193.024z"/>
<path fill="#414042" d="M71.201,268.76c-7.772-13.415-24.943-17.988-38.359-10.213c-13.415,7.78-17.977,24.952-10.204,38.366
	c7.772,13.409,24.941,17.99,38.357,10.219C74.401,299.348,78.984,282.177,71.201,268.76z"/>
<g>
	<path fill="#221F1F" d="M487.234,381.512c0,20.739-4.965,37.468-14.89,50.185c-9.927,12.719-23.62,19.077-41.079,19.077
		c-8.863,0-16.64-1.484-23.331-4.453c-6.693-2.969-12.386-7.422-17.083-13.361v70.326h-26.189V304.14h20.074l4.121,18.612
		c4.697-6.913,10.546-12.185,17.548-15.82c7-3.633,15.155-5.451,24.461-5.451c17.814,0,31.661,7.069,41.544,21.204
		c9.881,14.137,14.823,32.815,14.823,56.034V381.512z M461.045,378.72c0-16.306-3.214-29.712-9.639-40.214
		c-6.427-10.502-15.886-15.753-28.383-15.753c-7.534,0-13.958,1.708-19.276,5.118c-5.318,3.413-9.618,8.088-12.896,14.025v69.528
		c3.278,5.938,7.578,10.569,12.896,13.892c5.317,3.324,11.832,4.985,19.542,4.985c12.406,0,21.802-4.541,28.183-13.626
		c6.382-9.083,9.572-20.805,9.572-35.163V378.72z"/>
	<path fill="#221F1F" d="M581.755,450.773c-21.449,0-38.22-6.624-50.317-19.875c-12.098-13.248-18.146-30.597-18.146-52.046v-5.85
		c0-20.649,5.959-37.732,17.88-51.249c11.919-13.514,26.477-20.273,43.671-20.273c19.231,0,33.655,5.982,43.272,17.947
		c9.615,11.965,14.424,27.874,14.424,47.726v13.826h-91.994l-0.267,0.665c-0.089,14.357,3.301,26.057,10.17,35.096
		c6.867,9.04,17.304,13.56,31.308,13.56c8.685,0,15.598-0.908,20.739-2.725c5.139-1.815,11.21-4.586,18.213-8.309l6.514,18.479
		c-4.786,3.456-10.614,6.492-17.481,9.105C602.87,449.465,593.541,450.773,581.755,450.773z M574.842,322.087
		c-9.129,0-16.684,3.523-22.666,10.568c-5.982,7.046-9.638,16.065-10.968,27.054l0.267,0.665h64.875v-2.127
		c0-10.457-2.572-19.098-7.711-25.923C593.497,325.5,585.564,322.087,574.842,322.087z"/>
	<path fill="#221F1F" d="M685.316,304.14l1.861,21.403c4.785-7.621,10.789-13.537,18.013-17.748
		c7.223-4.208,15.442-6.314,24.661-6.314c15.508,0,27.519,4.543,36.026,13.626c8.509,9.085,12.763,23.111,12.763,42.076v90.799
		h-26.189v-90.267c0-12.673-2.505-21.669-7.511-26.987c-5.009-5.318-12.652-7.977-22.933-7.977c-8.065,0-14.912,1.618-20.539,4.852
		c-5.63,3.236-10.083,7.777-13.36,13.626v106.752h-26.189V304.14H685.316z"/>
</g>
<g>
	<path fill="#221F1F" d="M316.997,560.008l0.131,0.394c0.174,8.968-2.975,16.47-9.449,22.507
		c-6.474,6.036-15.026,9.055-25.656,9.055c-10.805,0-19.608-3.827-26.41-11.482c-6.802-7.654-10.203-17.366-10.203-29.134v-16.994
		c0-11.767,3.401-21.489,10.203-29.166c6.802-7.678,15.605-11.516,26.41-11.516c10.804,0,19.4,2.877,25.787,8.628
		c6.386,5.753,9.492,13.376,9.317,22.867l-0.131,0.394h-12.401c0-6.692-1.968-11.984-5.905-15.879
		c-3.937-3.893-9.493-5.84-16.667-5.84c-7.218,0-12.97,2.91-17.257,8.728c-4.288,5.818-6.43,13.035-6.43,21.652v17.126
		c0,8.705,2.143,15.968,6.43,21.784c4.287,5.818,10.039,8.728,17.257,8.728c7.174,0,12.729-1.936,16.667-5.808
		c3.937-3.871,5.905-9.219,5.905-16.043H316.997z"/>
	<path fill="#221F1F" d="M345.08,529.104c2.45-3.412,5.457-6.069,9.022-7.973c3.564-1.903,7.513-2.854,11.844-2.854
		c7.567,0,13.461,2.275,17.683,6.824c4.221,4.55,6.332,11.549,6.332,20.997v44.487h-12.926v-44.618
		c0-5.861-1.258-10.192-3.773-12.992c-2.516-2.799-6.266-4.199-11.253-4.199c-3.85,0-7.196,0.754-10.04,2.264
		c-2.844,1.509-5.14,3.62-6.89,6.332v53.214h-12.926v-102.36h12.926V529.104z"/>
	<path fill="#221F1F" d="M439.305,591.963c-10.587,0-18.865-3.27-24.836-9.81c-5.971-6.539-8.957-15.102-8.957-25.688v-2.887
		c0-10.192,2.941-18.624,8.825-25.295c5.883-6.671,13.068-10.007,21.555-10.007c9.491,0,16.61,2.953,21.357,8.858
		c4.746,5.905,7.119,13.758,7.119,23.556v6.824h-45.406l-0.131,0.328c-0.044,7.087,1.629,12.86,5.02,17.322
		c3.39,4.462,8.54,6.693,15.453,6.693c4.286,0,7.698-0.448,10.235-1.346c2.537-0.896,5.533-2.264,8.989-4.101l3.216,9.12
		c-2.362,1.706-5.239,3.205-8.629,4.495C449.726,591.317,445.121,591.963,439.305,591.963z M435.893,528.447
		c-4.506,0-8.235,1.738-11.188,5.216c-2.953,3.478-4.757,7.93-5.414,13.354l0.131,0.328h32.021v-1.05
		c0-5.161-1.27-9.427-3.806-12.796C445.1,530.132,441.185,528.447,435.893,528.447z"/>
	<path fill="#221F1F" d="M490.419,519.589l0.918,9.317c2.318-3.368,5.26-5.981,8.825-7.841s7.71-2.789,12.435-2.789
		s8.781,1.094,12.172,3.281c3.39,2.188,5.938,5.469,7.645,9.842c2.273-4.068,5.237-7.271,8.891-9.612
		c3.651-2.34,7.928-3.511,12.828-3.511c7.218,0,12.926,2.483,17.125,7.447c4.199,4.966,6.3,12.435,6.3,22.408v42.453H564.63V548
		c0-6.998-1.204-11.952-3.608-14.861c-2.406-2.909-5.994-4.363-10.762-4.363c-4.419,0-7.994,1.531-10.728,4.593
		c-2.734,3.063-4.342,6.934-4.823,11.614v0.524v45.078h-12.991V548c0-6.648-1.237-11.515-3.708-14.599
		c-2.472-3.084-6.026-4.626-10.662-4.626c-3.938,0-7.175,0.81-9.711,2.428c-2.538,1.618-4.484,3.894-5.84,6.824v52.558H478.87
		v-70.996H490.419z"/>
	<path fill="#221F1F" d="M610.299,501.413h-12.927v-13.188h12.927V501.413z M610.299,590.585h-12.927v-70.996h12.927V590.585z"/>
	<path fill="#221F1F" d="M671.452,571.491c0-2.844-1.083-5.161-3.248-6.956c-2.165-1.793-6.267-3.367-12.303-4.724
		c-8.355-1.793-14.775-4.309-19.259-7.546c-4.484-3.237-6.726-7.567-6.726-12.992c0-5.774,2.461-10.717,7.382-14.829
		c4.922-4.111,11.297-6.168,19.127-6.168c8.049,0,14.567,2.188,19.554,6.562c4.987,4.375,7.37,9.472,7.152,15.289L683,540.521
		h-12.335c0-3.062-1.346-5.84-4.036-8.333c-2.689-2.494-6.092-3.74-10.203-3.74c-4.55,0-7.95,1.028-10.203,3.084
		c-2.253,2.057-3.379,4.506-3.379,7.349c0,2.8,0.973,4.965,2.92,6.496c1.946,1.531,5.96,2.931,12.04,4.199
		c8.705,1.837,15.311,4.44,19.816,7.809c4.505,3.368,6.758,7.765,6.758,13.188c0,6.299-2.548,11.439-7.644,15.42
		c-5.097,3.98-11.757,5.971-19.98,5.971c-9.055,0-16.186-2.297-21.391-6.89c-5.206-4.593-7.677-9.951-7.414-16.076l0.131-0.394
		h12.336c0.219,4.594,1.924,7.951,5.118,10.072c3.192,2.122,6.933,3.183,11.22,3.183c4.594,0,8.191-0.974,10.794-2.92
		S671.452,574.509,671.452,571.491z"/>
	<path fill="#221F1F" d="M716.924,502.463v17.126h13.451v9.58h-13.451v43.109c0,3.325,0.689,5.665,2.066,7.021
		c1.378,1.356,3.204,2.034,5.479,2.034c0.743,0,1.563-0.087,2.461-0.263c0.896-0.174,1.694-0.394,2.395-0.656l1.771,8.858
		c-1.007,0.787-2.45,1.433-4.33,1.936c-1.882,0.503-3.74,0.755-5.578,0.755c-5.206,0-9.372-1.585-12.499-4.757
		c-3.128-3.171-4.691-8.146-4.691-14.928v-43.109h-11.221v-9.58h11.221v-17.126H716.924z"/>
	<path fill="#221F1F" d="M776.896,531.006l-6.628-0.394c-3.411,0-6.288,0.81-8.628,2.428c-2.341,1.619-4.146,3.894-5.413,6.824
		v50.721h-12.927v-70.996h11.549l0.918,11.023c1.969-3.849,4.462-6.867,7.48-9.055s6.518-3.281,10.499-3.281
		c0.961,0,1.88,0.077,2.756,0.229c0.874,0.154,1.596,0.318,2.165,0.492L776.896,531.006z"/>
	<path fill="#221F1F" d="M814.428,564.273l2.297,8.924h0.394l17.454-53.608h14.369l-29.854,81.889
		c-1.794,4.767-4.363,8.923-7.71,12.467c-3.347,3.543-7.863,5.314-13.55,5.314c-1.05,0-2.385-0.121-4.003-0.36
		c-1.618-0.241-2.865-0.471-3.739-0.689l1.312-10.17c-0.262-0.045,0.514,0,2.33,0.131c1.814,0.131,2.963,0.197,3.444,0.197
		c2.756,0,5.009-1.226,6.759-3.675c1.749-2.45,3.215-5.162,4.396-8.137l3.083-7.414l-26.377-69.553h14.436L814.428,564.273z"/>
</g>
<g>
	<g>
		<path fill="#221F1F" d="M183.131,462.034c-55.412,0-100.493-45.083-100.493-100.497c0-55.412,45.081-100.494,100.493-100.494
			c55.413,0,100.495,45.082,100.495,100.494C283.626,416.951,238.544,462.034,183.131,462.034z M183.131,281.62
			c-44.066,0-79.916,35.851-79.916,79.917c0,44.067,35.85,79.92,79.916,79.92c44.067,0,79.918-35.853,79.918-79.92
			C263.049,317.471,227.198,281.62,183.131,281.62z"/>
	</g>
</g>
</svg>
